<svg width="9" height="11" viewBox="0 0 9 11" fill="none" xmlns="http://www.w3.org/2000/svg">
<g clip-path="url(#clip0_28_3226)">
<g clip-path="url(#clip1_28_3226)">
<path d="M4.49743 9.49485C6.70514 9.49485 8.49485 7.70514 8.49485 5.49743C8.49485 3.28971 6.70514 1.5 4.49743 1.5C2.28971 1.5 0.5 3.28971 0.5 5.49743C0.5 7.70514 2.28971 9.49485 4.49743 9.49485Z" fill="#1977F3"/>
<path d="M6.0552 6.65315L6.23225 5.49738H5.1237V4.74748C5.1237 4.43155 5.27829 4.12293 5.77525 4.12293H6.27945V3.13918C6.27945 3.13918 5.8219 3.06104 5.38453 3.06104C4.47161 3.06104 3.87461 3.61418 3.87461 4.6165V5.49738H2.85938V6.65315H3.87461V9.44645C4.07811 9.4785 4.28667 9.4948 4.49916 9.4948C4.71165 9.4948 4.92021 9.47795 5.1237 9.44645V6.65315H6.0552Z" fill="white"/>
</g>
</g>
<defs>
<clipPath id="clip0_28_3226">
<rect width="8" height="11" fill="white" transform="translate(0.5)"/>
</clipPath>
<clipPath id="clip1_28_3226">
<rect width="8" height="8" fill="white" transform="translate(0.5 1.5)"/>
</clipPath>
</defs>
</svg>
