<svg width="9" height="11" viewBox="0 0 9 11" fill="none" xmlns="http://www.w3.org/2000/svg">
<g clip-path="url(#clip0_27_3209)">
<g clip-path="url(#clip1_27_3209)">
<path d="M8.4791 5.59346C8.4791 5.32239 8.45665 5.04987 8.4088 4.7832H4.57031V6.31873H6.76845C6.67725 6.81395 6.38415 7.25205 5.955 7.53045V8.5268H7.2664C8.0365 7.8323 8.4791 6.80665 8.4791 5.59346Z" fill="#4285F4"/>
<path d="M4.57023 9.48955C5.6678 9.48955 6.5934 9.13645 7.2678 8.5269L5.9564 7.5306C5.59155 7.7738 5.12051 7.91155 4.57172 7.91155C3.51004 7.91155 2.60985 7.2097 2.28686 6.26611H0.933594V7.2932C1.62443 8.63975 3.03154 9.48955 4.57023 9.48955Z" fill="#34A853"/>
<path d="M2.28468 6.266C2.11421 5.77076 2.11421 5.2345 2.28468 4.73926V3.71216H0.932897C0.355701 4.8389 0.355701 6.16637 0.932897 7.2931L2.28468 6.266Z" fill="#FBBC04"/>
<path d="M4.57023 3.09245C5.15041 3.08366 5.71115 3.29758 6.13135 3.69025L7.2932 2.55179C6.5575 1.87487 5.58105 1.50271 4.57023 1.51443C3.03154 1.51443 1.62443 2.36424 0.933594 3.71223L2.28537 4.73934C2.60686 3.79428 3.50854 3.09245 4.57023 3.09245Z" fill="#EA4335"/>
</g>
</g>
<defs>
<clipPath id="clip0_27_3209">
<rect width="8" height="11" fill="white" transform="translate(0.5)"/>
</clipPath>
<clipPath id="clip1_27_3209">
<rect width="8" height="8" fill="white" transform="translate(0.5 1.5)"/>
</clipPath>
</defs>
</svg>
